<svg xmlns="http://www.w3.org/2000/svg" width="287.39" height="53.512" viewBox="0 0 287.39 53.512">
  <g id="Group_1" data-name="Group 1" transform="translate(-2.413 -383.2)">
    <path id="Union_2" data-name="Union 2" d="M61.858,54.353a18.163,18.163,0,0,1-4.667-12.28,17.324,17.324,0,0,1,5.023-12.854,17.528,17.528,0,0,1,12.893-4.983,16.483,16.483,0,0,1,12.281,5.082,17.322,17.322,0,0,1,4.964,12.6A17.454,17.454,0,0,1,87.388,54.65,16.7,16.7,0,0,1,74.95,59.712Q66.524,59.712,61.858,54.353ZM69.491,35.9a8.161,8.161,0,0,0-2.255,5.774,9.2,9.2,0,0,0,2.235,6.249,6.861,6.861,0,0,0,10.66.059,8.567,8.567,0,0,0,2.254-5.913,8.837,8.837,0,0,0-2.254-6.012,6.816,6.816,0,0,0-5.261-2.57A7.11,7.11,0,0,0,69.491,35.9Zm-58.9,18.9L.527,58.669l4.9-9.061A27.174,27.174,0,0,1,0,32.659,25.5,25.5,0,0,1,7.614,14.07,24.828,24.828,0,0,1,25.945,6.357q13.685,0,21.041,11.984L39.552,25.3a16.039,16.039,0,0,0-5.774-6.031A14.237,14.237,0,0,0,16,21.9a15.161,15.161,0,0,0-4.489,10.916A15.7,15.7,0,0,0,16,44.148,14.5,14.5,0,0,0,26.816,48.8a13.632,13.632,0,0,0,6.625-1.741q3.185-1.74,5.122-6.526h-12.3V30.4H50.23v6.724q0,5.181-3.56,11.134a21.549,21.549,0,0,1-9.374,8.7,27.233,27.233,0,0,1-11.747,2.75A23.937,23.937,0,0,1,10.593,54.8Zm113.043-.313a19.144,19.144,0,0,1-4.192-12.5,18.508,18.508,0,0,1,4.469-12.478,13.568,13.568,0,0,1,10.6-5.2,10.587,10.587,0,0,1,5.26,1.3,20.719,20.719,0,0,1,4.944,4.153V25.066h10.125V59H144.717V53.186h-.158a17.628,17.628,0,0,1-4.785,4.924,10.981,10.981,0,0,1-5.972,1.523A12.7,12.7,0,0,1,123.636,54.491Zm8.622-17.66a9.039,9.039,0,0,0-2.017,6.032,7.751,7.751,0,0,0,1.919,5.477,6.542,6.542,0,0,0,5.043,2.077,6.658,6.658,0,0,0,5.142-2.393,8.4,8.4,0,0,0,2.136-5.794,7.807,7.807,0,0,0-2.136-5.478,6.673,6.673,0,0,0-5.062-2.313A6.312,6.312,0,0,0,132.258,36.831Zm77.975,15.781q-5.517-6.94-5.518-18.252,0-12.024,5.4-19.282a16.89,16.89,0,0,1,14.218-7.258h.317A17.191,17.191,0,0,1,238.966,14.7q5.339,6.882,5.34,18.391,0,13.447-5.933,19.954t-13.724,6.506A17.543,17.543,0,0,1,210.233,52.612Zm7.574-30.632q-2.492,4.39-2.491,12.221,0,7.119,2.531,11.39t6.645,4.271q4.192,0,6.7-4.271t2.511-11.549q0-7.672-2.452-12.063t-6.605-4.39Q220.3,17.59,217.807,21.981ZM183.517,59V46.937H161.091V37.6l23.295-29.07h10.2V37.682h4.786v9.255H194.59V59ZM170.354,37.682h13.163V21.2h-.158ZM101.567,59V6.2h10.125V59ZM279.393,24.389a6.308,6.308,0,0,1-1.9-4.688,6.541,6.541,0,0,1,1.765-4.687,5.9,5.9,0,0,1,4.475-1.86,8.149,8.149,0,0,1,3.662.878v3.545a6.992,6.992,0,0,0-3-.791,2.867,2.867,0,0,0-2.037,4.812,2.7,2.7,0,0,0,2.007.77,8.713,8.713,0,0,0,2.989-.733v3.749a8.168,8.168,0,0,1-3.208.879A6.492,6.492,0,0,1,279.393,24.389Zm-15.718-.11a6.726,6.726,0,0,1-1.729-4.549,6.417,6.417,0,0,1,1.86-4.761,6.494,6.494,0,0,1,4.775-1.846,6.107,6.107,0,0,1,4.549,1.883,6.416,6.416,0,0,1,1.838,4.666,6.466,6.466,0,0,1-1.838,4.717,6.185,6.185,0,0,1-4.607,1.875A6.087,6.087,0,0,1,263.675,24.279Zm2.827-6.834a3.021,3.021,0,0,0-.835,2.138,3.409,3.409,0,0,0,.828,2.315,2.54,2.54,0,0,0,3.947.022,3.17,3.17,0,0,0,.835-2.19,3.269,3.269,0,0,0-.835-2.227,2.524,2.524,0,0,0-1.948-.952A2.633,2.633,0,0,0,266.5,17.445ZM247,24.315a7.1,7.1,0,0,1-1.529-4.614,7.1,7.1,0,0,1,1.579-4.65,4.755,4.755,0,0,1,3.788-1.927,4.447,4.447,0,0,1,2.12.462,6.529,6.529,0,0,1,1.77,1.5V6.444H258.5V26h-3.692V23.846h-.059a4.827,4.827,0,0,1-4.065,2.359A4.6,4.6,0,0,1,247,24.315Zm3.245-6.621a3.214,3.214,0,0,0-.8,2.3,2.927,2.927,0,0,0,.708,1.977,2.19,2.19,0,0,0,1.716.821,2.592,2.592,0,0,0,2-.887,3.162,3.162,0,0,0,.8-2.2,2.872,2.872,0,0,0-.782-2,2.5,2.5,0,0,0-1.921-.858A2.361,2.361,0,0,0,250.24,17.694Z" transform="translate(2.412 377)" fill="#fff"/>
  </g>
</svg>
