<svg xmlns="http://www.w3.org/2000/svg" xmlns:xlink="http://www.w3.org/1999/xlink" width="712.432" height="534" viewBox="0 0 712.432 534">
  <defs>
    <linearGradient id="linear-gradient" x1="0.5" x2="0.5" y2="1" gradientUnits="objectBoundingBox">
      <stop offset="0" stop-color="red"/>
      <stop offset="1" stop-color="#ffe600"/>
    </linearGradient>
  </defs>
  <g id="Group_1" data-name="Group 1" transform="translate(-1021 -111)">
    <g id="Union_2" data-name="Union 2" transform="translate(1629 275)" fill="none">
      <path d="M17.733,55A9.229,9.229,0,0,1,11.2,52.3C4.5,48.857,0,42.454,0,35.123,0,24.146,10.1,15.248,22.551,15.248A24.942,24.942,0,0,1,32.79,17.409C35.415,7.416,45.082,0,56.606,0,68.872,0,79.035,8.4,80.84,19.376a22.415,22.415,0,0,1,3.766-.316c10.949,0,19.827,7.863,19.827,17.562a15.719,15.719,0,0,1-.878,5.182A9.261,9.261,0,0,1,95.174,55Z" stroke="none"/>
      <path d="M 95.17411041259766 52.99990463256836 C 99.17633819580078 52.99990463256836 102.4324035644531 49.74424362182617 102.4324035644531 45.74250411987305 C 102.4324035644531 44.6621208190918 102.2012786865234 43.62353515625 101.7454452514648 42.65559768676758 L 101.3975982666016 41.91695022583008 L 101.6660461425781 41.14590454101563 C 102.1745681762695 39.68531799316406 102.4324035644531 38.16293334960938 102.4324035644531 36.62099838256836 C 102.4324035644531 28.04024314880371 94.43524932861328 21.05930519104004 84.60540008544922 21.05930519104004 C 83.45124816894531 21.05930519104004 82.29723358154297 21.15619659423828 81.1754150390625 21.34730339050293 L 79.19246673583984 21.68510437011719 L 78.86606597900391 19.70024299621582 C 78.06719970703125 14.84242725372314 75.41194152832031 10.37798118591309 71.38941955566406 7.129319667816162 C 69.38478851318359 5.510350227355957 67.11569213867188 4.245381355285645 64.64518737792969 3.36958122253418 C 62.0816650390625 2.460796594619751 59.37672424316406 1.999996542930603 56.60551071166992 1.999996542930603 C 54.00121688842773 1.999996542930603 51.44963073730469 2.408181190490723 49.02163314819336 3.213196516036987 C 46.68032455444336 3.989488840103149 44.50367736816406 5.116719722747803 42.55218505859375 6.563580989837646 C 40.62552642822266 7.992058277130127 38.97349548339844 9.690627098083496 37.64201736450195 11.61211967468262 C 36.29383087158203 13.55771923065186 35.31204605102539 15.67918109893799 34.72395706176758 17.91756629943848 L 34.12363433837891 20.20247268676758 L 31.96914100646973 19.23330497741699 C 29.04026412963867 17.91582679748535 25.87164878845215 17.2477970123291 22.55129432678223 17.2477970123291 C 11.21927833557129 17.2477970123291 2.000001668930054 25.26675033569336 2.000001668930054 35.12339782714844 C 2.000001668930054 38.26581192016602 2.952063322067261 41.35655212402344 4.753247737884521 44.06147384643555 C 6.526171207427979 46.72393417358398 9.072324752807617 48.95885848999023 12.11646366119385 50.52461242675781 L 12.39260196685791 50.66664123535156 L 12.61267852783203 50.88570404052734 C 13.98224830627441 52.24907302856445 15.80058670043945 52.99990463256836 17.73270988464355 52.99990463256836 L 95.17411041259766 52.99990463256836 M 95.17411041259766 54.99990463256836 L 17.73270988464355 54.99990463256836 C 15.18418598175049 54.99990463256836 12.87586307525635 53.96971893310547 11.20167827606201 52.30313491821289 C 4.50224781036377 48.8572883605957 1.782226604518655e-06 42.45381164550781 1.782226604518655e-06 35.12339782714844 C 1.782226604518655e-06 24.14610481262207 10.09620189666748 15.2477970123291 22.55129432678223 15.2477970123291 C 26.23750877380371 15.2477970123291 29.71721649169922 16.02730369567871 32.78960037231445 17.40935134887695 C 35.41530990600586 7.415519714355469 45.08241653442383 -3.437218310864409e-06 56.60551071166992 -3.437218310864409e-06 C 68.87242889404297 -3.437218310864409e-06 79.03524780273438 8.403780937194824 80.83955383300781 19.37570381164551 C 82.05903625488281 19.16796493530273 83.31748199462891 19.05930519104004 84.60540008544922 19.05930519104004 C 95.55480194091797 19.05930519104004 104.4324035644531 26.9225959777832 104.4324035644531 36.62099838256836 C 104.4324035644531 38.42482757568359 104.1251525878906 40.16544342041016 103.5548477172852 41.80350494384766 C 104.1177062988281 42.99871826171875 104.4324035644531 44.33382797241211 104.4324035644531 45.74250411987305 C 104.4324035644531 50.85539627075195 100.2870025634766 54.99990463256836 95.17411041259766 54.99990463256836 Z" stroke="none"/>
    </g>
    <g id="Union_1" data-name="Union 1" transform="translate(1254 373)" fill="none">
      <path d="M27.315,89.56a15.019,15.019,0,0,1-9.91-3.714,32.416,32.416,0,0,1,29.95-57.5C51.147,12.075,65.107,0,81.749,0c17.716,0,32.393,13.685,35,31.551a28.622,28.622,0,0,1,32.74,36.729,15.082,15.082,0,0,1-13.743,21.28Z" stroke="none"/>
      <path d="M 135.7452087402344 87.55990600585938 C 139.2377319335938 87.55990600585938 142.5211791992188 86.19992828369141 144.99072265625 83.73049163818359 C 147.460205078125 81.26111602783203 148.8202056884766 77.97795104980469 148.8202056884766 74.48580169677734 C 148.8202056884766 72.60919952392578 148.4316864013672 70.79853057861328 147.6654205322266 69.10411834716797 L 147.3495788574219 68.40570068359375 L 147.5814208984375 67.67511749267578 C 148.4034118652344 65.0845947265625 148.8202056884766 62.37888717651367 148.8202056884766 59.63309478759766 C 148.8202056884766 56.04188537597656 148.1163787841797 52.55911636352539 146.728271484375 49.28157424926758 C 145.3870239257813 46.11467742919922 143.4664611816406 43.2700309753418 141.0199432373047 40.82669830322266 C 138.5732269287109 38.3831787109375 135.724609375 36.46495056152344 132.5531616210938 35.12528228759766 C 129.2706298828125 33.7386589050293 125.7825393676758 33.03559494018555 122.1858139038086 33.03559494018555 C 120.4831466674805 33.03559494018555 118.7803344726563 33.19684600830078 117.124641418457 33.51486587524414 L 115.0702514648438 33.90946960449219 L 114.7683334350586 31.83940696716309 C 113.5660018920898 23.59586524963379 109.5882034301758 16.03667831420898 103.5676879882813 10.55434513092041 C 100.5953979492188 7.847740650177002 97.23583221435547 5.734907627105713 93.58231353759766 4.274511814117432 C 89.80654144287109 2.765261650085449 85.82516479492188 2.000011682510376 81.74880981445313 2.000011682510376 C 77.91828918457031 2.000011682510376 74.1632080078125 2.677761793136597 70.58785247802734 4.01442813873291 C 67.1275634765625 5.308073997497559 63.90720748901367 7.189469814300537 61.0162467956543 9.606324195861816 C 58.14614486694336 12.00574111938477 55.68214416503906 14.86382389068604 53.69270706176758 18.10113716125488 C 51.66618728637695 21.39878273010254 50.18931198120117 24.99930381774902 49.30310440063477 28.80271911621094 L 48.72447967529297 31.28594970703125 L 46.45053863525391 30.13253211975098 C 44.34622955322266 29.06515693664551 42.1168098449707 28.24288749694824 39.82418441772461 27.68857383728027 C 37.46322631835938 27.11774063110352 35.02199935913086 26.82830429077148 32.56830978393555 26.82830429077148 C 28.43910217285156 26.82830429077148 24.43460273742676 27.63149070739746 20.66606140136719 29.21555328369141 C 17.02591514587402 30.74563598632813 13.75651931762695 32.93630218505859 10.94868659973145 35.72671890258789 C 8.141727447509766 38.51626205444336 5.938290119171143 41.76382446289063 4.399581909179688 45.37919998168945 C 2.807332038879395 49.12034606933594 1.999998688697815 53.0954475402832 1.999998688697815 57.19409561157227 C 1.999998688697815 62.82703399658203 3.563436269760132 68.32578277587891 6.521290302276611 73.09590911865234 C 9.399831771850586 77.73811340332031 13.48435306549072 81.53421783447266 18.3332691192627 84.07382202148438 L 18.54256057739258 84.18344879150391 L 18.72056198120117 84.33882141113281 C 21.10014533996582 86.41596984863281 24.15237426757813 87.55990600585938 27.31499862670898 87.55990600585938 L 135.7452087402344 87.55990600585938 M 135.7452087402344 89.55990600585938 L 27.31499862670898 89.55990600585938 C 23.52149772644043 89.55990600585938 20.05493545532227 88.15838623046875 17.40533256530762 85.84553527832031 C 7.055685997009277 80.4249267578125 -1.322428374805895e-06 69.62819671630859 -1.322428374805895e-06 57.19409561157227 C -1.322428374805895e-06 39.31919860839844 14.58089447021484 24.82830429077148 32.56830978393555 24.82830429077148 C 37.89185333251953 24.82830429077148 42.91818618774414 26.09822082519531 47.35527038574219 28.3488655090332 C 51.14706039428711 12.07540798187256 65.10749816894531 1.168823200714542e-05 81.74880981445313 1.168823200714542e-05 C 99.46435546875 1.168823200714542e-05 114.1416015625 13.68459510803223 116.7473907470703 31.55076217651367 C 118.5085220336914 31.21249008178711 120.3258514404297 31.03559494018555 122.1858139038086 31.03559494018555 C 137.9997100830078 31.03559494018555 150.8202056884766 43.8389892578125 150.8202056884766 59.63309478759766 C 150.8202056884766 62.64734649658203 150.3534393310547 65.55182647705078 149.4877471923828 68.28001403808594 C 150.3435668945313 70.17247009277344 150.8202056884766 72.27371978759766 150.8202056884766 74.48580169677734 C 150.8202056884766 82.81080627441406 144.0711059570313 89.55990600585938 135.7452087402344 89.55990600585938 Z" stroke="none"/>
    </g>
    <g id="Ellipse_1" data-name="Ellipse 1" transform="translate(1453.743 193.542) rotate(22)" stroke="#000" stroke-width="3" fill="url(#linear-gradient)">
      <ellipse cx="90.5" cy="88.5" rx="90.5" ry="88.5" stroke="none"/>
      <ellipse cx="90.5" cy="88.5" rx="89" ry="87" fill="none"/>
    </g>
    <g id="Ellipse_2" data-name="Ellipse 2" transform="translate(1332 168)" fill="none" stroke="#000" stroke-width="2" stroke-dasharray="12 43">
      <ellipse cx="156" cy="162" rx="156" ry="162" stroke="none"/>
      <ellipse cx="156" cy="162" rx="155" ry="161" fill="none"/>
    </g>
    <g id="Ellipse_3" data-name="Ellipse 3" transform="translate(1379 200)" fill="none" stroke="#000" stroke-width="2" stroke-dasharray="33 43">
      <ellipse cx="125" cy="121.5" rx="125" ry="121.5" stroke="none"/>
      <ellipse cx="125" cy="121.5" rx="124" ry="120.5" fill="none"/>
    </g>
    <text id="_" data-name="+" transform="translate(1072 465)" font-size="53" font-family="SegoeUI, Segoe UI"><tspan x="0" y="0">+</tspan></text>
    <text id="_2" data-name="+" transform="translate(1387 579)" font-size="53" font-family="SegoeUI, Segoe UI"><tspan x="0" y="0">+</tspan></text>
    <text id="_3" data-name="*" transform="translate(1192 387)" font-size="53" font-family="SegoeUI, Segoe UI"><tspan x="0" y="0">*</tspan></text>
    <text id="_4" data-name="*" transform="translate(1277 168)" font-size="53" font-family="SegoeUI, Segoe UI"><tspan x="0" y="0">*</tspan></text>
    <text id="_-" data-name="-" transform="translate(1138 257)" font-size="53" font-family="SegoeUI, Segoe UI"><tspan x="0" y="0">-</tspan></text>
    <text id="_--2" data-name="-" transform="translate(1218 520)" font-size="53" font-family="SegoeUI, Segoe UI"><tspan x="0" y="0">-</tspan></text>
    <text id="_--3" data-name="-" transform="translate(1573 579)" font-size="53" font-family="SegoeUI, Segoe UI"><tspan x="0" y="0">-</tspan></text>
    <text id="_--4" data-name="-" transform="translate(1021 614)" font-size="53" font-family="SegoeUI, Segoe UI"><tspan x="0" y="0">-</tspan></text>
    <text id="_5" data-name="*" transform="translate(1228 632)" font-size="53" font-family="SegoeUI, Segoe UI"><tspan x="0" y="0">*</tspan></text>
    <text id="Welcome" transform="translate(1277 437)" font-size="25" font-family="VinerHandITC, Viner Hand ITC"><tspan x="0" y="0">Welcome</tspan></text>
  </g>
</svg>
